<svg width="45" height="35" viewBox="0 0 45 35" fill="none" xmlns="http://www.w3.org/2000/svg">
<path d="M19.4531 9.92969C21.1256 9.92969 22.5946 10.266 23.8604 10.9463C25.126 11.6191 26.0983 12.5085 26.7764 13.6074V10.2734H34.0547V33.8477H26.7764V30.5127C26.0681 31.6118 25.0812 32.5019 23.8154 33.1748C22.5497 33.8477 21.0807 34.1914 19.4082 34.1914C17.4794 34.1914 15.7157 33.6904 14.126 32.6885C12.5366 31.6866 11.2785 30.2664 10.3594 28.4199C9.44021 26.5732 8.97268 24.442 8.97266 22.0195C8.97266 19.597 9.43265 17.4734 10.3594 15.6416L10.3672 15.6338C11.2864 13.8022 12.5442 12.3961 14.1338 11.4092C15.7235 10.4223 17.4943 9.92969 19.4531 9.92969ZM4.33984 26.3193C5.61326 26.3193 6.6159 26.7002 7.42969 27.4629C8.23588 28.2256 8.64251 29.1679 8.64258 30.2969C8.64258 31.4259 8.23577 32.3158 7.42969 33.0635C6.62342 33.8112 5.59068 34.1855 4.33984 34.1855C3.08914 34.1855 2.01909 33.8112 1.21289 33.0635C0.406836 32.3158 0 31.396 0 30.2969C6.97719e-05 29.1978 0.406696 28.2256 1.21289 27.4629C2.01909 26.7002 3.06655 26.3194 4.33984 26.3193ZM44.1064 33.8408H36.8281V10.2656H44.1064V33.8408ZM21.5781 16.2246C20.1316 16.2246 18.9031 16.7404 17.8936 17.7646C16.884 18.7964 16.3789 20.2099 16.3789 22.0117C16.3789 23.8137 16.884 25.242 17.8936 26.3037C18.9031 27.3579 20.1316 27.8887 21.5781 27.8887C23.0245 27.8886 24.2522 27.3652 25.2617 26.3262C26.2713 25.2869 26.7764 23.8586 26.7764 22.0566C26.7763 20.2548 26.2713 18.8339 25.2617 17.7871C24.2523 16.7481 23.0244 16.2247 21.5781 16.2246ZM40.4824 0C41.7557 0 42.7586 0.373404 43.5723 1.12109C44.3784 1.86874 44.7851 2.8037 44.7852 3.93262C44.7852 5.06151 44.3783 5.95158 43.5723 6.69922C42.7661 7.44691 41.7331 7.82031 40.4824 7.82031C39.232 7.82025 38.1625 7.44671 37.3564 6.69922C36.5503 5.95153 36.1426 5.03172 36.1426 3.93262C36.1426 2.83359 36.5503 1.86874 37.3564 1.12109C38.1625 0.373735 39.2095 6.50184e-05 40.4824 0Z" fill="#2F333D" style="fill:#2F333D;fill:color(display-p3 0.1843 0.2000 0.2392);fill-opacity:1;"/>
</svg>
