<svg width="36" height="27" viewBox="0 0 36 27" fill="none" xmlns="http://www.w3.org/2000/svg">
<path d="M15.2842 7.80176C16.5984 7.80176 17.7535 8.06599 18.748 8.60059C19.7424 9.12929 20.5063 9.82888 21.0391 10.6924V8.07227H26.7568V26.5947H21.0391V23.9746C20.4826 24.8382 19.7064 25.5377 18.7119 26.0664C17.7175 26.595 16.5631 26.8652 15.249 26.8652C13.7337 26.8652 12.3486 26.4716 11.0996 25.6846C9.85063 24.8974 8.86185 23.7809 8.13965 22.3301C7.41743 20.879 7.0498 19.2042 7.0498 17.3008C7.04983 15.3975 7.41154 13.7293 8.13965 12.29L8.14551 12.2842C8.86773 10.8449 9.85638 9.7403 11.1055 8.96484C12.3544 8.18953 13.7453 7.80183 15.2842 7.80176ZM3.41016 20.6797C4.4107 20.6797 5.19849 20.9788 5.83789 21.5781C6.47122 22.1773 6.79094 22.9177 6.79102 23.8047C6.79102 24.6917 6.47113 25.3911 5.83789 25.9785C5.20441 26.566 4.39294 26.8603 3.41016 26.8604C2.42735 26.8604 1.58662 26.5661 0.953125 25.9785C0.319752 25.391 0 24.6683 0 23.8047C7.86328e-05 22.9411 0.31971 22.1773 0.953125 21.5781C1.58661 20.9789 2.40963 20.6797 3.41016 20.6797ZM34.6553 26.5889H28.9365V8.06641H34.6553V26.5889ZM16.9541 12.748C15.8177 12.748 14.8528 13.1534 14.0596 13.958C13.2664 14.7687 12.8692 15.8792 12.8691 17.2949C12.8691 18.7107 13.2663 19.8328 14.0596 20.667C14.8528 21.4953 15.8175 21.9131 16.9541 21.9131C18.0907 21.9131 19.0554 21.5011 19.8486 20.6846C20.6418 19.868 21.0391 18.7458 21.0391 17.3301C21.039 15.9144 20.6418 14.798 19.8486 13.9756C19.0554 13.1592 18.0905 12.7481 16.9541 12.748ZM31.8076 0C32.8081 0 33.596 0.293389 34.2354 0.880859C34.8687 1.46826 35.1884 2.20291 35.1885 3.08984C35.1885 3.97679 34.8686 4.67625 34.2354 5.26367C33.6019 5.85114 32.7903 6.14453 31.8076 6.14453C30.825 6.1445 29.984 5.85111 29.3506 5.26367C28.7174 4.67625 28.3984 3.95329 28.3984 3.08984C28.3985 2.22641 28.7173 1.46826 29.3506 0.880859C29.984 0.293421 30.8072 3.20944e-05 31.8076 0Z" fill="#2F333D" style="fill:#2F333D;fill:color(display-p3 0.1843 0.2000 0.2392);fill-opacity:1;"/>
</svg>
