<svg width="220" height="34" viewBox="0 0 220 34" fill="none" xmlns="http://www.w3.org/2000/svg">
<path d="M14.5859 3.70117C22.4592 3.70117 27.1834 7.0808 28.6602 13.75H20.7422C20.4484 12.95 20.0935 12.307 19.7168 11.8584C18.6168 10.5428 16.3871 10.1836 14.5791 10.1836C12.7709 10.1836 10.5405 10.5426 9.44043 11.8584C8.46097 13.0323 7.63965 15.47 7.63965 18.8047C7.63966 22.1394 8.45344 24.5771 9.44043 25.751C10.5405 27.0667 12.771 27.4258 14.5791 27.4258C16.3871 27.4257 18.6167 27.0665 19.7168 25.751C20.1237 25.2575 20.5007 24.5466 20.8096 23.6494V23.6426H28.6982C27.2742 30.4462 22.535 33.9003 14.5791 33.9004C4.92009 33.9004 0 28.8084 0 18.7969C8.94804e-05 8.78562 4.91972 3.69383 14.5859 3.70117ZM41.4658 9.78711C48.4576 9.78715 53.6337 13.2866 53.6338 21.7354C53.6338 30.1842 48.4576 33.6836 41.4658 33.6836C34.474 33.6836 29.2979 30.1842 29.2979 21.7354C29.2979 13.2866 34.4815 9.78711 41.4658 9.78711ZM113.329 9.78711C120.321 9.78711 125.497 13.2867 125.497 21.7354C125.497 22.326 125.475 22.8946 125.422 23.4404H108.575C109.027 26.6703 110.828 27.9784 113.329 27.9785C115.152 27.9785 116.607 27.2762 117.436 25.6465H125.053C123.666 31.2763 119.123 33.6836 113.329 33.6836C106.337 33.6835 101.161 30.1841 101.161 21.7354C101.161 13.2868 106.337 9.7872 113.329 9.78711ZM151.228 9.78711C154.166 9.78711 156.48 10.513 158.175 11.9561C159.87 13.3991 160.842 15.3132 161.091 17.6982H154.46C154.347 16.8909 153.993 16.2552 153.391 15.7842C152.788 15.3131 151.996 15.0742 151.017 15.0742C150.18 15.0743 149.532 15.2313 149.088 15.5527C148.644 15.8741 148.418 16.3074 148.418 16.8604C148.418 17.5258 148.772 18.0275 149.487 18.3564C150.203 18.6929 151.311 19.0219 152.825 19.3584C154.558 19.7995 155.975 20.2399 157.06 20.666C158.152 21.0997 159.108 21.7882 159.93 22.7451C160.751 23.7022 161.181 24.9882 161.211 26.5957C161.211 27.9565 160.827 29.1681 160.059 30.2373C159.29 31.3065 158.182 32.1437 156.743 32.7568C155.304 33.3699 153.631 33.6689 151.732 33.6689C149.691 33.6689 147.875 33.325 146.278 32.6299L146.271 32.6445C144.673 31.9492 143.415 30.9995 142.496 29.7959C141.577 28.5921 141.056 27.2382 140.943 25.7354H148.033C148.116 26.5427 148.493 27.1934 149.163 27.6943C149.834 28.1953 150.663 28.4424 151.643 28.4424C152.539 28.4424 153.232 28.2703 153.722 27.9189C154.211 27.575 154.453 27.1187 154.453 26.5654C154.453 25.9001 154.106 25.4064 153.405 25.085C152.705 24.7635 151.575 24.4122 150.008 24.0234C148.328 23.6346 146.933 23.224 145.811 22.7979C144.688 22.3642 143.724 21.6905 142.918 20.7559C142.104 19.8288 141.704 18.5732 141.704 16.9883C141.704 15.6575 142.074 14.4383 142.819 13.3467C143.558 12.2476 144.651 11.3797 146.09 10.7441C147.529 10.1088 149.239 9.78715 151.228 9.78711ZM69.252 9.8623C71.9943 9.8623 74.1795 10.7445 75.8145 12.5088H75.8076C77.4425 14.2733 78.2636 16.696 78.2637 19.7764V33.3477H71.1289V20.7334C71.1288 19.1784 70.7212 17.975 69.915 17.1152C69.1013 16.2554 68.0167 15.8213 66.6455 15.8213C65.2743 15.8213 64.1821 16.2554 63.376 17.1152C62.5623 17.975 62.1631 19.1858 62.1631 20.7334V33.3477H54.9902V10.1162H62.1631V13.1973C62.8863 12.1731 63.8652 11.3579 65.1006 10.7598C66.3286 10.1617 67.7151 9.86236 69.252 9.8623ZM90.1797 26.6719L95.2539 10.1162H102.887L94.584 33.3477H85.7305L77.4277 10.1162H85.1055L90.1797 26.6719ZM169.514 33.3467H162.341V10.1162H169.514V33.3467ZM210.764 9.8623C213.506 9.8623 215.691 10.7444 217.326 12.5088H217.318C218.953 14.2733 219.775 16.696 219.775 19.7764V33.3467H212.64V20.7334C212.64 19.1784 212.233 17.975 211.427 17.1152C210.613 16.2554 209.528 15.8213 208.157 15.8213C206.786 15.8213 205.693 16.2554 204.887 17.1152C204.073 17.975 203.674 19.186 203.674 20.7334V33.3467H196.501V10.1162H203.674V13.1973C204.397 12.173 205.377 11.3579 206.612 10.7598C207.84 10.1616 209.227 9.86233 210.764 9.8623ZM141.244 17.3994H140.167C137.319 17.3994 133.907 18.2289 133.906 22.5576V33.3398H126.733V10.1162H133.906V13.9893C134.743 12.7109 135.798 11.7089 137.056 10.9688H137.048C138.306 10.2361 139.707 9.86233 141.244 9.8623V17.3994ZM182.472 9.41699C189.464 9.41699 194.64 12.9163 194.64 21.3652C194.64 29.814 189.463 33.3135 182.472 33.3135C175.48 33.3135 170.304 29.8139 170.304 21.3652C170.304 12.9164 175.487 9.41701 182.472 9.41699ZM41.4658 15.9482C38.5651 15.9482 36.5987 17.5783 36.5986 21.7354C36.5986 25.8925 38.5651 27.5225 41.4658 27.5225C44.3665 27.5224 46.333 25.8924 46.333 21.7354C46.333 17.5784 44.3664 15.9483 41.4658 15.9482ZM182.472 15.5781C179.571 15.5781 177.604 17.2081 177.604 21.3652C177.605 25.5222 179.571 27.1523 182.472 27.1523C185.372 27.1523 187.339 25.5222 187.339 21.3652C187.339 17.2081 185.372 15.5781 182.472 15.5781ZM113.329 15.4922C110.971 15.4923 109.239 16.6589 108.666 19.4922H117.993C117.42 16.6512 115.687 15.4922 113.329 15.4922ZM165.949 0C167.207 0 168.195 0.366415 168.993 1.10645C169.792 1.83917 170.191 2.76648 170.191 3.87305C170.191 4.97963 169.792 5.86233 168.993 6.60254C168.195 7.33503 167.185 7.70898 165.949 7.70898C164.714 7.70889 163.667 7.34253 162.868 6.60254C162.07 5.8698 161.67 4.9572 161.67 3.87305C161.67 2.78891 162.07 1.83917 162.868 1.10645C163.667 0.373863 164.691 8.99765e-05 165.949 0Z" fill="#2F333D" style="fill:#2F333D;fill:color(display-p3 0.1843 0.2000 0.2392);fill-opacity:1;"/>
</svg>
