<svg width="173" height="27" viewBox="0 0 173 27" fill="none" xmlns="http://www.w3.org/2000/svg">
<path d="M11.4609 2.9082C17.647 2.90827 21.3583 5.56355 22.5186 10.8037H16.2969C16.066 10.1752 15.7882 9.66985 15.4922 9.31738C14.628 8.28351 12.8758 8.00102 11.4551 8.00098C10.0343 8.00098 8.28129 8.28343 7.41699 9.31738C6.64751 10.2398 6.00293 12.1555 6.00293 14.7754C6.003 17.395 6.64165 19.31 7.41699 20.2324C8.28129 21.2664 10.0343 21.5488 11.4551 21.5488C12.8758 21.5488 14.628 21.2663 15.4922 20.2324C15.8118 19.8447 16.1079 19.2868 16.3506 18.582V18.5762H22.5488C21.4299 23.9219 17.7062 26.6357 11.4551 26.6357C3.866 26.6357 0.000152627 22.6355 0 14.7695C0 6.9033 3.86579 2.90233 11.4609 2.9082ZM32.5801 7.69043C38.0737 7.69043 42.1406 10.4397 42.1406 17.0781C42.1405 23.7163 38.0736 26.4658 32.5801 26.4658C27.0867 26.4658 23.0197 23.7162 23.0195 17.0781C23.0195 10.4398 27.0925 7.69047 32.5801 7.69043ZM89.0449 7.69043C94.5383 7.69057 98.6055 10.4399 98.6055 17.0781C98.6055 17.542 98.5873 17.9883 98.5459 18.417H85.3096C85.6648 20.9549 87.0795 21.9834 89.0449 21.9834C90.4773 21.9833 91.6194 21.4308 92.2705 20.1504H98.2559C97.1666 24.5739 93.5971 26.4657 89.0449 26.4658C83.5514 26.4658 79.4845 23.7163 79.4844 17.0781C79.4844 10.4397 83.5513 7.69043 89.0449 7.69043ZM118.822 7.69043C121.131 7.69047 122.948 8.25978 124.28 9.39355C125.612 10.5273 126.376 12.0313 126.571 13.9053H121.361C121.272 13.271 120.995 12.7714 120.521 12.4014C120.048 12.0313 119.426 11.8438 118.656 11.8438C117.999 11.8438 117.49 11.9671 117.141 12.2197C116.792 12.4722 116.614 12.8127 116.614 13.2471C116.614 13.7699 116.892 14.1644 117.454 14.4229C118.016 14.6872 118.887 14.9456 120.077 15.21C121.439 15.5566 122.552 15.9025 123.404 16.2373C124.263 16.578 125.014 17.1192 125.659 17.8711C126.304 18.6231 126.642 19.6334 126.666 20.8965C126.666 21.9656 126.364 22.9177 125.76 23.7578C125.156 24.5977 124.286 25.2557 123.155 25.7373C122.025 26.219 120.71 26.4541 119.219 26.4541C117.615 26.4541 116.188 26.184 114.933 25.6377L114.927 25.6494C113.672 25.1031 112.683 24.3569 111.961 23.4111C111.239 22.4653 110.83 21.4015 110.741 20.2207H116.312C116.377 20.8552 116.673 21.3662 117.2 21.7598C117.727 22.1533 118.378 22.3476 119.147 22.3477C119.852 22.3477 120.396 22.2125 120.781 21.9365C121.166 21.6663 121.355 21.3077 121.355 20.873C121.355 20.3503 121.083 19.9626 120.533 19.71C119.983 19.4574 119.094 19.1814 117.863 18.876C116.543 18.5705 115.447 18.247 114.565 17.9121C113.683 17.5714 112.925 17.0429 112.292 16.3086C111.653 15.5802 111.339 14.593 111.339 13.3477C111.339 12.302 111.63 11.344 112.216 10.4863C112.796 9.62286 113.655 8.94169 114.785 8.44238C115.916 7.94311 117.26 7.69043 118.822 7.69043ZM54.4131 7.74902C56.5675 7.74912 58.2839 8.44208 59.5684 9.82812H59.5625C60.8471 11.2146 61.4932 13.1187 61.4932 15.5391V26.2012H55.8867V16.291C55.8867 15.0691 55.567 14.1229 54.9336 13.4473C54.2943 12.7717 53.4417 12.4307 52.3643 12.4307C51.2869 12.4307 50.4283 12.7717 49.7949 13.4473C49.1556 14.1229 48.8418 15.075 48.8418 16.291V26.2012H43.2061V7.94824H48.8418V10.3691C49.41 9.56443 50.1797 8.92406 51.1504 8.4541C52.1153 7.98413 53.2054 7.74902 54.4131 7.74902ZM70.8555 20.957L74.8428 7.94824H80.8398L74.3154 26.2012H67.3604L60.8359 7.94824H66.8691L70.8555 20.957ZM133.189 26.2012H127.554V7.94824H133.189V26.2012ZM165.601 7.74902C167.755 7.74912 169.471 8.44204 170.756 9.82812H170.75C172.035 11.2146 172.681 13.1187 172.681 15.5391V26.2012H167.074V16.291C167.074 15.0691 166.754 14.1229 166.121 13.4473C165.482 12.7717 164.629 12.4307 163.552 12.4307C162.474 12.4307 161.616 12.7717 160.982 13.4473C160.343 14.1228 160.029 15.075 160.029 16.291V26.2012H154.394V7.94824H160.029V10.3691C160.598 9.56444 161.367 8.92406 162.338 8.4541C163.303 7.98413 164.393 7.74902 165.601 7.74902ZM110.978 13.6709H110.131C107.893 13.6709 105.212 14.3227 105.212 17.7236V26.1953H99.5762V7.94824H105.212V10.9922C105.869 9.98761 106.698 9.19976 107.687 8.61816H107.681C108.669 8.04259 109.77 7.74904 110.978 7.74902V13.6709ZM143.37 7.39844C148.864 7.39844 152.931 10.1487 152.931 16.7871C152.93 23.4252 148.864 26.1748 143.37 26.1748C137.877 26.1746 133.811 23.425 133.811 16.7871C133.811 10.1489 137.883 7.3986 143.37 7.39844ZM32.5801 12.5303C30.301 12.5303 28.7559 13.8119 28.7559 17.0781C28.756 20.3441 30.3011 21.6249 32.5801 21.625C34.8591 21.625 36.4042 20.3442 36.4043 17.0781C36.4043 13.8118 34.8592 12.5303 32.5801 12.5303ZM143.37 12.2393C141.091 12.2394 139.546 13.521 139.546 16.7871C139.546 20.0529 141.091 21.3338 143.37 21.334C145.649 21.334 147.194 20.0531 147.194 16.7871C147.194 13.5208 145.649 12.2393 143.37 12.2393ZM89.0449 12.1729C87.192 12.1729 85.8298 13.0889 85.3799 15.3154H92.709C92.2591 13.0832 90.8976 12.173 89.0449 12.1729ZM130.389 0C131.377 0 132.153 0.287727 132.78 0.869141C133.408 1.44486 133.722 2.17351 133.722 3.04297C133.722 3.91242 133.408 4.6059 132.78 5.1875C132.153 5.76302 131.359 6.05664 130.389 6.05664C129.418 6.05657 128.595 5.76896 127.968 5.1875C127.34 4.61178 127.026 3.8948 127.026 3.04297C127.026 2.19114 127.34 1.44486 127.968 0.869141C128.595 0.29353 129.4 7.20179e-05 130.389 0Z" fill="#2F333D" style="fill:#2F333D;fill:color(display-p3 0.1843 0.2000 0.2392);fill-opacity:1;"/>
</svg>
