<svg width="40" height="31" viewBox="0 0 40 31" fill="none" xmlns="http://www.w3.org/2000/svg">
<g clip-path="url(#clip0_16_5133)">
<path d="M7.63027 29.844H5.18792C1.56917 29.844 0 29.5815 0 24.9321V0.43145H2.44236C6.0611 0.43145 7.63027 0.69401 7.63027 5.34338V29.844Z" fill="url(#paint0_linear_16_5133)" style=""/>
<path d="M7.63027 29.844H5.18792C1.56917 29.844 0 29.5815 0 24.9321V0.43145H2.44236C6.0611 0.43145 7.63027 0.69401 7.63027 5.34338V29.844Z" fill="url(#paint1_linear_16_5133)" fill-opacity="0.6" style="" style="mix-blend-mode:hard-light"/>
<path d="M30.0584 15.2009C30.0584 18.5591 29.5051 21.0677 28.502 22.2645C27.3807 23.6018 25.0319 23.8821 23.2589 23.8821C21.486 23.8821 19.1381 23.6018 18.0159 22.2645C17.5542 21.7138 17.188 20.8858 16.9271 19.8247C18.7237 27.9159 25.8332 30.0763 31.6384 28.4341C35.5603 26.0907 37.5429 21.6646 37.5429 15.2009C37.5429 5.12631 32.7252 1.14441e-05 23.258 1.14441e-05C19.8646 1.14441e-05 17.0689 0.658868 14.8785 1.96773C20.6837 0.324523 27.7932 2.48597 29.5898 10.5771C29.8959 11.8221 30.0574 13.3876 30.0574 15.2009H30.0584Z" fill="url(#paint2_linear_16_5133)" style=""/>
<path d="M30.0584 15.2009C30.0584 18.5591 29.5051 21.0677 28.502 22.2645C27.3807 23.6018 25.0319 23.8821 23.2589 23.8821C21.486 23.8821 19.1381 23.6018 18.0159 22.2645C17.5542 21.7138 17.188 20.8858 16.9271 19.8247C18.7237 27.9159 25.8332 30.0763 31.6384 28.4341C35.5603 26.0907 37.5429 21.6646 37.5429 15.2009C37.5429 5.12631 32.7252 1.14441e-05 23.258 1.14441e-05C19.8646 1.14441e-05 17.0689 0.658868 14.8785 1.96773C20.6837 0.324523 27.7932 2.48597 29.5898 10.5771C29.8959 11.8221 30.0574 13.3876 30.0574 15.2009H30.0584Z" fill="url(#paint3_linear_16_5133)" fill-opacity="0.6" style="" style="mix-blend-mode:hard-light"/>
<path d="M30.0584 15.2009C30.0584 18.5591 29.5051 21.0677 28.502 22.2645C27.3807 23.6018 25.0319 23.8821 23.2589 23.8821C21.486 23.8821 19.1381 23.6018 18.0159 22.2645C17.5542 21.7138 17.188 20.8858 16.9271 19.8247C18.7237 27.9159 25.8332 30.0763 31.6384 28.4341C35.5603 26.0907 37.5429 21.6646 37.5429 15.2009C37.5429 5.12631 32.7252 1.14441e-05 23.258 1.14441e-05C19.8646 1.14441e-05 17.0689 0.658868 14.8785 1.96773C20.6837 0.324523 27.7932 2.48597 29.5898 10.5771C29.8959 11.8221 30.0574 13.3876 30.0574 15.2009H30.0584Z" fill="url(#paint4_radial_16_5133)" fill-opacity="0.6" style="" style="mix-blend-mode:hard-light"/>
<path d="M8.97388 15.2009C8.97388 25.2746 13.7916 30.4019 23.2589 30.4019C26.6522 30.4019 29.4479 29.743 31.6383 28.4341C25.8331 30.0773 18.7236 27.9159 16.927 19.8247C16.6209 18.5798 16.4594 17.0143 16.4594 15.2009C16.4594 11.8427 17.0127 9.33415 18.0158 8.13739C19.1371 6.80001 21.4859 6.51975 23.2589 6.51975C25.0318 6.51975 27.3797 6.80001 28.5019 8.13739C28.9636 8.68808 29.3298 9.51608 29.5907 10.5771C27.7931 2.48597 20.6836 0.324527 14.8785 1.96774C10.9565 4.3111 8.97388 8.73725 8.97388 15.2009Z" fill="url(#paint5_linear_16_5133)" style=""/>
<path d="M8.97388 15.2009C8.97388 25.2746 13.7916 30.4019 23.2589 30.4019C26.6522 30.4019 29.4479 29.743 31.6383 28.4341C25.8331 30.0773 18.7236 27.9159 16.927 19.8247C16.6209 18.5798 16.4594 17.0143 16.4594 15.2009C16.4594 11.8427 17.0127 9.33415 18.0158 8.13739C19.1371 6.80001 21.4859 6.51975 23.2589 6.51975C25.0318 6.51975 27.3797 6.80001 28.5019 8.13739C28.9636 8.68808 29.3298 9.51608 29.5907 10.5771C27.7931 2.48597 20.6836 0.324527 14.8785 1.96774C10.9565 4.3111 8.97388 8.73725 8.97388 15.2009Z" fill="url(#paint6_linear_16_5133)" fill-opacity="0.6" style="" style="mix-blend-mode:hard-light"/>
<path d="M8.97388 15.2009C8.97388 25.2746 13.7916 30.4019 23.2589 30.4019C26.6522 30.4019 29.4479 29.743 31.6383 28.4341C25.8331 30.0773 18.7236 27.9159 16.927 19.8247C16.6209 18.5798 16.4594 17.0143 16.4594 15.2009C16.4594 11.8427 17.0127 9.33415 18.0158 8.13739C19.1371 6.80001 21.4859 6.51975 23.2589 6.51975C25.0318 6.51975 27.3797 6.80001 28.5019 8.13739C28.9636 8.68808 29.3298 9.51608 29.5907 10.5771C27.7931 2.48597 20.6836 0.324527 14.8785 1.96774C10.9565 4.3111 8.97388 8.73725 8.97388 15.2009Z" fill="url(#paint7_radial_16_5133)" style="" style="mix-blend-mode:hard-light"/>
<path d="M8.97388 15.2009C8.97388 25.2746 13.7916 30.4019 23.2589 30.4019C26.6522 30.4019 29.4479 29.743 31.6383 28.4341C25.8331 30.0773 18.7236 27.9159 16.927 19.8247C16.6209 18.5798 16.4594 17.0143 16.4594 15.2009C16.4594 11.8427 17.0127 9.33415 18.0158 8.13739C19.1371 6.80001 21.4859 6.51975 23.2589 6.51975C25.0318 6.51975 27.3797 6.80001 28.5019 8.13739C28.9636 8.68808 29.3298 9.51608 29.5907 10.5771C27.7931 2.48597 20.6836 0.324527 14.8785 1.96774C10.9565 4.3111 8.97388 8.73725 8.97388 15.2009Z" fill="url(#paint8_radial_16_5133)" style="" style="mix-blend-mode:hard-light"/>
<path d="M23.2582 23.8812C21.4853 23.8812 19.1374 23.6009 18.0152 22.2635C17.5535 21.7128 17.1873 20.8848 16.9264 19.8238C18.1805 25.6837 22.3703 28.206 26.4566 29.6378C30.5912 31.0863 34.7966 30.8641 38.8032 30.2829C40.4384 24.7367 38.4302 22.6441 34.6254 23.0532C28.2611 23.7386 25.991 23.8812 23.2572 23.8812" fill="#F0264F" style="fill:#F0264F;fill:color(display-p3 0.9412 0.1490 0.3098);fill-opacity:1;"/>
<path d="M23.2582 23.8812C21.4853 23.8812 19.1374 23.6009 18.0152 22.2635C17.5535 21.7128 17.1873 20.8848 16.9264 19.8238C18.1805 25.6837 22.3703 28.206 26.4566 29.6378C30.5912 31.0863 34.7966 30.8641 38.8032 30.2829C40.4384 24.7367 38.4302 22.6441 34.6254 23.0532C28.2611 23.7386 25.991 23.8812 23.2572 23.8812" fill="url(#paint9_radial_16_5133)" style="" style="mix-blend-mode:hard-light"/>
<path d="M23.2582 23.8812C21.4853 23.8812 19.1374 23.6009 18.0152 22.2635C17.5535 21.7128 17.1873 20.8848 16.9264 19.8238C18.1805 25.6837 22.3703 28.206 26.4566 29.6378C30.5912 31.0863 34.7966 30.8641 38.8032 30.2829C40.4384 24.7367 38.4302 22.6441 34.6254 23.0532C28.2611 23.7386 25.991 23.8812 23.2572 23.8812" fill="url(#paint10_radial_16_5133)" fill-opacity="0.4" style="" style="mix-blend-mode:multiply"/>
</g>
<defs>
<linearGradient id="paint0_linear_16_5133" x1="1.46881" y1="-7.67053" x2="1.46881" y2="34.5242" gradientUnits="userSpaceOnUse">
<stop offset="0.125836" stop-color="#15C1FF" style="stop-color:#15C1FF;stop-color:color(display-p3 0.0824 0.7569 1.0000);stop-opacity:1;"/>
<stop offset="0.517392" stop-color="#4D46C3" style="stop-color:#4D46C3;stop-color:color(display-p3 0.3020 0.2745 0.7647);stop-opacity:1;"/>
<stop offset="0.773983" stop-color="#373299" style="stop-color:#373299;stop-color:color(display-p3 0.2157 0.1961 0.6000);stop-opacity:1;"/>
<stop offset="0.939775" stop-color="#15C1FF" style="stop-color:#15C1FF;stop-color:color(display-p3 0.0824 0.7569 1.0000);stop-opacity:1;"/>
</linearGradient>
<linearGradient id="paint1_linear_16_5133" x1="3.81514" y1="0.43145" x2="3.81514" y2="29.844" gradientUnits="userSpaceOnUse">
<stop offset="0.516558" stop-color="#808080" style="stop-color:#808080;stop-color:color(display-p3 0.5000 0.5000 0.5000);stop-opacity:1;"/>
<stop offset="0.77934" stop-color="#595959" style="stop-color:#595959;stop-color:color(display-p3 0.3481 0.3481 0.3481);stop-opacity:1;"/>
<stop offset="1" stop-color="#808080" style="stop-color:#808080;stop-color:color(display-p3 0.5000 0.5000 0.5000);stop-opacity:1;"/>
</linearGradient>
<linearGradient id="paint2_linear_16_5133" x1="19.2414" y1="-5.99854" x2="19.2414" y2="35.6362" gradientUnits="userSpaceOnUse">
<stop offset="0.0708454" stop-color="#15C1FF" style="stop-color:#15C1FF;stop-color:color(display-p3 0.0824 0.7569 1.0000);stop-opacity:1;"/>
<stop offset="0.237806" stop-color="#373299" style="stop-color:#373299;stop-color:color(display-p3 0.2157 0.1961 0.6000);stop-opacity:1;"/>
<stop offset="0.497615" stop-color="#4D46C3" style="stop-color:#4D46C3;stop-color:color(display-p3 0.3020 0.2745 0.7647);stop-opacity:1;"/>
<stop offset="1" stop-color="#15C1FF" style="stop-color:#15C1FF;stop-color:color(display-p3 0.0824 0.7569 1.0000);stop-opacity:1;"/>
</linearGradient>
<linearGradient id="paint3_linear_16_5133" x1="26.2107" y1="1.14441e-05" x2="26.2107" y2="28.9463" gradientUnits="userSpaceOnUse">
<stop stop-color="#808080" style="stop-color:#808080;stop-color:color(display-p3 0.5000 0.5000 0.5000);stop-opacity:1;"/>
<stop offset="0.22066" stop-color="#535252" style="stop-color:#535252;stop-color:color(display-p3 0.3249 0.3216 0.3216);stop-opacity:1;"/>
<stop offset="0.744836" stop-color="#808080" style="stop-color:#808080;stop-color:color(display-p3 0.5000 0.5000 0.5000);stop-opacity:1;"/>
</linearGradient>
<radialGradient id="paint4_radial_16_5133" cx="0" cy="0" r="1" gradientTransform="matrix(-8.05438 -10.1392 13.2378 -10.4781 37.5871 27.0677)" gradientUnits="userSpaceOnUse">
<stop stop-color="white" style="stop-color:white;stop-opacity:1;"/>
<stop offset="1" stop-color="#808080" stop-opacity="0" style="stop-color:none;stop-opacity:0;"/>
</radialGradient>
<linearGradient id="paint5_linear_16_5133" x1="13.3367" y1="-6.51852" x2="13.3367" y2="35.008" gradientUnits="userSpaceOnUse">
<stop offset="0.0603483" stop-color="#15C1FF" style="stop-color:#15C1FF;stop-color:color(display-p3 0.0824 0.7569 1.0000);stop-opacity:1;"/>
<stop offset="0.512348" stop-color="#4D46C3" style="stop-color:#4D46C3;stop-color:color(display-p3 0.3020 0.2745 0.7647);stop-opacity:1;"/>
<stop offset="0.773983" stop-color="#373299" style="stop-color:#373299;stop-color:color(display-p3 0.2157 0.1961 0.6000);stop-opacity:1;"/>
<stop offset="0.922192" stop-color="#15C1FF" style="stop-color:#15C1FF;stop-color:color(display-p3 0.0824 0.7569 1.0000);stop-opacity:1;"/>
</linearGradient>
<linearGradient id="paint6_linear_16_5133" x1="20.3061" y1="1.45514" x2="20.3061" y2="30.4019" gradientUnits="userSpaceOnUse">
<stop offset="0.516558" stop-color="#808080" style="stop-color:#808080;stop-color:color(display-p3 0.5000 0.5000 0.5000);stop-opacity:1;"/>
<stop offset="0.77934" stop-color="#595959" style="stop-color:#595959;stop-color:color(display-p3 0.3481 0.3481 0.3481);stop-opacity:1;"/>
<stop offset="1" stop-color="#808080" style="stop-color:#808080;stop-color:color(display-p3 0.5000 0.5000 0.5000);stop-opacity:1;"/>
</linearGradient>
<radialGradient id="paint7_radial_16_5133" cx="0" cy="0" r="1" gradientTransform="matrix(-12.0063 -9.17371 5.07792 -6.63163 30.8124 7.91613)" gradientUnits="userSpaceOnUse">
<stop stop-color="white" style="stop-color:white;stop-opacity:1;"/>
<stop offset="1" stop-color="#808080" stop-opacity="0" style="stop-color:none;stop-opacity:0;"/>
</radialGradient>
<radialGradient id="paint8_radial_16_5133" cx="0" cy="0" r="1" gradientTransform="matrix(-10.7392 -2.7693 2.77429 -10.7199 30.0696 31.7576)" gradientUnits="userSpaceOnUse">
<stop stop-color="white" style="stop-color:white;stop-opacity:1;"/>
<stop offset="1" stop-color="#808080" stop-opacity="0" style="stop-color:none;stop-opacity:0;"/>
</radialGradient>
<radialGradient id="paint9_radial_16_5133" cx="0" cy="0" r="1" gradientTransform="matrix(19.3932 10.227 -23.3289 44.1429 17.6706 21.8308)" gradientUnits="userSpaceOnUse">
<stop offset="0.0198274" stop-color="#F7F7F7" style="stop-color:#F7F7F7;stop-color:color(display-p3 0.9703 0.9703 0.9703);stop-opacity:1;"/>
<stop offset="0.415385" stop-color="#808080" style="stop-color:#808080;stop-color:color(display-p3 0.5000 0.5000 0.5000);stop-opacity:1;"/>
</radialGradient>
<radialGradient id="paint10_radial_16_5133" cx="0" cy="0" r="1" gradientTransform="matrix(19.3932 10.227 -23.3289 44.1429 17.6706 21.8308)" gradientUnits="userSpaceOnUse">
<stop offset="0.227498" stop-color="white" style="stop-color:white;stop-opacity:1;"/>
<stop offset="0.647812" stop-color="#B1B1B1" style="stop-color:#B1B1B1;stop-color:color(display-p3 0.6942 0.6942 0.6942);stop-opacity:1;"/>
<stop offset="1" stop-color="white" style="stop-color:white;stop-opacity:1;"/>
</radialGradient>
<clipPath id="clip0_16_5133">
<rect width="39.3559" height="30.7468" fill="white" style="fill:white;fill-opacity:1;"/>
</clipPath>
</defs>
</svg>
