<svg width="31" height="25" viewBox="0 0 31 25" fill="none" xmlns="http://www.w3.org/2000/svg">
<g clip-path="url(#clip0_18_13311)">
<path d="M5.99521 23.4487H4.07622C1.23292 23.4487 0 23.2424 0 19.5894V0.338867H1.91899C4.76229 0.338867 5.99521 0.545164 5.99521 4.19824V23.4487Z" fill="url(#paint0_linear_18_13311)" style=""/>
<path d="M5.99521 23.4487H4.07622C1.23292 23.4487 0 23.2424 0 19.5894V0.338867H1.91899C4.76229 0.338867 5.99521 0.545164 5.99521 4.19824V23.4487Z" fill="url(#paint1_linear_18_13311)" fill-opacity="0.6" style="" style="mix-blend-mode:hard-light"/>
<path d="M23.6172 11.9436C23.6172 14.5822 23.1825 16.5532 22.3943 17.4935C21.5133 18.5443 19.6678 18.7645 18.2748 18.7645C16.8818 18.7645 15.037 18.5443 14.1553 17.4935C13.7925 17.0608 13.5048 16.4102 13.2998 15.5766C14.7114 21.9339 20.2974 23.6314 24.8586 22.3411C27.9401 20.4999 29.4979 17.0222 29.4979 11.9436C29.4979 4.02781 25.7125 0 18.274 0C15.6078 0 13.4112 0.517673 11.6902 1.54607C16.2514 0.254974 21.8374 1.95325 23.249 8.31059C23.4896 9.28876 23.6164 10.5188 23.6164 11.9436H23.6172Z" fill="url(#paint2_linear_18_13311)" style=""/>
<path d="M23.6172 11.9436C23.6172 14.5822 23.1825 16.5532 22.3943 17.4935C21.5133 18.5443 19.6678 18.7645 18.2748 18.7645C16.8818 18.7645 15.037 18.5443 14.1553 17.4935C13.7925 17.0608 13.5048 16.4102 13.2998 15.5766C14.7114 21.9339 20.2974 23.6314 24.8586 22.3411C27.9401 20.4999 29.4979 17.0222 29.4979 11.9436C29.4979 4.02781 25.7125 0 18.274 0C15.6078 0 13.4112 0.517673 11.6902 1.54607C16.2514 0.254974 21.8374 1.95325 23.249 8.31059C23.4896 9.28876 23.6164 10.5188 23.6164 11.9436H23.6172Z" fill="url(#paint3_linear_18_13311)" fill-opacity="0.6" style="" style="mix-blend-mode:hard-light"/>
<path d="M23.6172 11.9436C23.6172 14.5822 23.1825 16.5532 22.3943 17.4935C21.5133 18.5443 19.6678 18.7645 18.2748 18.7645C16.8818 18.7645 15.037 18.5443 14.1553 17.4935C13.7925 17.0608 13.5048 16.4102 13.2998 15.5766C14.7114 21.9339 20.2974 23.6314 24.8586 22.3411C27.9401 20.4999 29.4979 17.0222 29.4979 11.9436C29.4979 4.02781 25.7125 0 18.274 0C15.6078 0 13.4112 0.517673 11.6902 1.54607C16.2514 0.254974 21.8374 1.95325 23.249 8.31059C23.4896 9.28876 23.6164 10.5188 23.6164 11.9436H23.6172Z" fill="url(#paint4_radial_18_13311)" fill-opacity="0.6" style="" style="mix-blend-mode:hard-light"/>
<path d="M7.0509 11.9436C7.0509 19.8586 10.8363 23.8872 18.2748 23.8872C20.941 23.8872 23.1377 23.3695 24.8586 22.3411C20.2975 23.6322 14.7114 21.9339 13.2998 15.5766C13.0593 14.5984 12.9324 13.3683 12.9324 11.9436C12.9324 9.30499 13.3671 7.33397 14.1553 6.39366C15.0363 5.34286 16.8818 5.12265 18.2748 5.12265C19.6678 5.12265 21.5126 5.34286 22.3944 6.39366C22.7571 6.82634 23.0448 7.47691 23.2498 8.31059C21.8374 1.95325 16.2514 0.254975 11.6902 1.54607C8.60868 3.38729 7.0509 6.86497 7.0509 11.9436Z" fill="url(#paint5_linear_18_13311)" style=""/>
<path d="M7.0509 11.9436C7.0509 19.8586 10.8363 23.8872 18.2748 23.8872C20.941 23.8872 23.1377 23.3695 24.8586 22.3411C20.2975 23.6322 14.7114 21.9339 13.2998 15.5766C13.0593 14.5984 12.9324 13.3683 12.9324 11.9436C12.9324 9.30499 13.3671 7.33397 14.1553 6.39366C15.0363 5.34286 16.8818 5.12265 18.2748 5.12265C19.6678 5.12265 21.5126 5.34286 22.3944 6.39366C22.7571 6.82634 23.0448 7.47691 23.2498 8.31059C21.8374 1.95325 16.2514 0.254975 11.6902 1.54607C8.60868 3.38729 7.0509 6.86497 7.0509 11.9436Z" fill="url(#paint6_linear_18_13311)" fill-opacity="0.6" style="" style="mix-blend-mode:hard-light"/>
<path d="M7.0509 11.9436C7.0509 19.8586 10.8363 23.8872 18.2748 23.8872C20.941 23.8872 23.1377 23.3695 24.8586 22.3411C20.2975 23.6322 14.7114 21.9339 13.2998 15.5766C13.0593 14.5984 12.9324 13.3683 12.9324 11.9436C12.9324 9.30499 13.3671 7.33397 14.1553 6.39366C15.0363 5.34286 16.8818 5.12265 18.2748 5.12265C19.6678 5.12265 21.5126 5.34286 22.3944 6.39366C22.7571 6.82634 23.0448 7.47691 23.2498 8.31059C21.8374 1.95325 16.2514 0.254975 11.6902 1.54607C8.60868 3.38729 7.0509 6.86497 7.0509 11.9436Z" fill="url(#paint7_radial_18_13311)" style="" style="mix-blend-mode:hard-light"/>
<path d="M7.0509 11.9436C7.0509 19.8586 10.8363 23.8872 18.2748 23.8872C20.941 23.8872 23.1377 23.3695 24.8586 22.3411C20.2975 23.6322 14.7114 21.9339 13.2998 15.5766C13.0593 14.5984 12.9324 13.3683 12.9324 11.9436C12.9324 9.30499 13.3671 7.33397 14.1553 6.39366C15.0363 5.34286 16.8818 5.12265 18.2748 5.12265C19.6678 5.12265 21.5126 5.34286 22.3944 6.39366C22.7571 6.82634 23.0448 7.47691 23.2498 8.31059C21.8374 1.95325 16.2514 0.254975 11.6902 1.54607C8.60868 3.38729 7.0509 6.86497 7.0509 11.9436Z" fill="url(#paint8_radial_18_13311)" style="" style="mix-blend-mode:hard-light"/>
<path d="M18.2743 18.7639C16.8813 18.7639 15.0365 18.5437 14.1548 17.4929C13.792 17.0602 13.5043 16.4096 13.2993 15.5759C14.2847 20.1801 17.5766 22.162 20.7873 23.2869C24.0359 24.4251 27.3402 24.2504 30.4883 23.7938C31.773 19.4361 30.1951 17.7919 27.2056 18.1133C22.2051 18.6518 20.4215 18.7639 18.2735 18.7639" fill="#F0264F" style="fill:#F0264F;fill:color(display-p3 0.9412 0.1490 0.3098);fill-opacity:1;"/>
<path d="M18.2743 18.7639C16.8813 18.7639 15.0365 18.5437 14.1548 17.4929C13.792 17.0602 13.5043 16.4096 13.2993 15.5759C14.2847 20.1801 17.5766 22.162 20.7873 23.2869C24.0359 24.4251 27.3402 24.2504 30.4883 23.7938C31.773 19.4361 30.1951 17.7919 27.2056 18.1133C22.2051 18.6518 20.4215 18.7639 18.2735 18.7639" fill="url(#paint9_radial_18_13311)" style="" style="mix-blend-mode:hard-light"/>
<path d="M18.2743 18.7639C16.8813 18.7639 15.0365 18.5437 14.1548 17.4929C13.792 17.0602 13.5043 16.4096 13.2993 15.5759C14.2847 20.1801 17.5766 22.162 20.7873 23.2869C24.0359 24.4251 27.3402 24.2504 30.4883 23.7938C31.773 19.4361 30.1951 17.7919 27.2056 18.1133C22.2051 18.6518 20.4215 18.7639 18.2735 18.7639" fill="url(#paint10_radial_18_13311)" fill-opacity="0.4" style="" style="mix-blend-mode:multiply"/>
</g>
<defs>
<linearGradient id="paint0_linear_18_13311" x1="1.15406" y1="-6.02697" x2="1.15406" y2="27.1261" gradientUnits="userSpaceOnUse">
<stop offset="0.125836" stop-color="#15C1FF" style="stop-color:#15C1FF;stop-color:color(display-p3 0.0824 0.7569 1.0000);stop-opacity:1;"/>
<stop offset="0.517392" stop-color="#4D46C3" style="stop-color:#4D46C3;stop-color:color(display-p3 0.3020 0.2745 0.7647);stop-opacity:1;"/>
<stop offset="0.773983" stop-color="#373299" style="stop-color:#373299;stop-color:color(display-p3 0.2157 0.1961 0.6000);stop-opacity:1;"/>
<stop offset="0.939775" stop-color="#15C1FF" style="stop-color:#15C1FF;stop-color:color(display-p3 0.0824 0.7569 1.0000);stop-opacity:1;"/>
</linearGradient>
<linearGradient id="paint1_linear_18_13311" x1="2.99761" y1="0.338867" x2="2.99761" y2="23.4487" gradientUnits="userSpaceOnUse">
<stop offset="0.516558" stop-color="#808080" style="stop-color:#808080;stop-color:color(display-p3 0.5000 0.5000 0.5000);stop-opacity:1;"/>
<stop offset="0.77934" stop-color="#595959" style="stop-color:#595959;stop-color:color(display-p3 0.3481 0.3481 0.3481);stop-opacity:1;"/>
<stop offset="1" stop-color="#808080" style="stop-color:#808080;stop-color:color(display-p3 0.5000 0.5000 0.5000);stop-opacity:1;"/>
</linearGradient>
<linearGradient id="paint2_linear_18_13311" x1="15.1181" y1="-4.71315" x2="15.1181" y2="27.9999" gradientUnits="userSpaceOnUse">
<stop offset="0.0708454" stop-color="#15C1FF" style="stop-color:#15C1FF;stop-color:color(display-p3 0.0824 0.7569 1.0000);stop-opacity:1;"/>
<stop offset="0.237806" stop-color="#373299" style="stop-color:#373299;stop-color:color(display-p3 0.2157 0.1961 0.6000);stop-opacity:1;"/>
<stop offset="0.497615" stop-color="#4D46C3" style="stop-color:#4D46C3;stop-color:color(display-p3 0.3020 0.2745 0.7647);stop-opacity:1;"/>
<stop offset="1" stop-color="#15C1FF" style="stop-color:#15C1FF;stop-color:color(display-p3 0.0824 0.7569 1.0000);stop-opacity:1;"/>
</linearGradient>
<linearGradient id="paint3_linear_18_13311" x1="20.5941" y1="0" x2="20.5941" y2="22.7435" gradientUnits="userSpaceOnUse">
<stop stop-color="#808080" style="stop-color:#808080;stop-color:color(display-p3 0.5000 0.5000 0.5000);stop-opacity:1;"/>
<stop offset="0.22066" stop-color="#535252" style="stop-color:#535252;stop-color:color(display-p3 0.3249 0.3216 0.3216);stop-opacity:1;"/>
<stop offset="0.744836" stop-color="#808080" style="stop-color:#808080;stop-color:color(display-p3 0.5000 0.5000 0.5000);stop-opacity:1;"/>
</linearGradient>
<radialGradient id="paint4_radial_18_13311" cx="0" cy="0" r="1" gradientTransform="matrix(-6.32844 -7.96652 10.4012 -8.23279 29.5326 21.2674)" gradientUnits="userSpaceOnUse">
<stop stop-color="white" style="stop-color:white;stop-opacity:1;"/>
<stop offset="1" stop-color="#808080" stop-opacity="0" style="stop-color:none;stop-opacity:0;"/>
</radialGradient>
<linearGradient id="paint5_linear_18_13311" x1="10.4789" y1="-5.12171" x2="10.4789" y2="27.5062" gradientUnits="userSpaceOnUse">
<stop offset="0.0603483" stop-color="#15C1FF" style="stop-color:#15C1FF;stop-color:color(display-p3 0.0824 0.7569 1.0000);stop-opacity:1;"/>
<stop offset="0.512348" stop-color="#4D46C3" style="stop-color:#4D46C3;stop-color:color(display-p3 0.3020 0.2745 0.7647);stop-opacity:1;"/>
<stop offset="0.773983" stop-color="#373299" style="stop-color:#373299;stop-color:color(display-p3 0.2157 0.1961 0.6000);stop-opacity:1;"/>
<stop offset="0.922192" stop-color="#15C1FF" style="stop-color:#15C1FF;stop-color:color(display-p3 0.0824 0.7569 1.0000);stop-opacity:1;"/>
</linearGradient>
<linearGradient id="paint6_linear_18_13311" x1="15.9548" y1="1.14331" x2="15.9548" y2="23.8872" gradientUnits="userSpaceOnUse">
<stop offset="0.516558" stop-color="#808080" style="stop-color:#808080;stop-color:color(display-p3 0.5000 0.5000 0.5000);stop-opacity:1;"/>
<stop offset="0.77934" stop-color="#595959" style="stop-color:#595959;stop-color:color(display-p3 0.3481 0.3481 0.3481);stop-opacity:1;"/>
<stop offset="1" stop-color="#808080" style="stop-color:#808080;stop-color:color(display-p3 0.5000 0.5000 0.5000);stop-opacity:1;"/>
</linearGradient>
<radialGradient id="paint7_radial_18_13311" cx="0" cy="0" r="1" gradientTransform="matrix(-9.43354 -7.20791 3.9898 -5.21056 24.2097 6.21981)" gradientUnits="userSpaceOnUse">
<stop stop-color="white" style="stop-color:white;stop-opacity:1;"/>
<stop offset="1" stop-color="#808080" stop-opacity="0" style="stop-color:none;stop-opacity:0;"/>
</radialGradient>
<radialGradient id="paint8_radial_18_13311" cx="0" cy="0" r="1" gradientTransform="matrix(-8.43792 -2.17588 2.1798 -8.42275 23.6261 24.9524)" gradientUnits="userSpaceOnUse">
<stop stop-color="white" style="stop-color:white;stop-opacity:1;"/>
<stop offset="1" stop-color="#808080" stop-opacity="0" style="stop-color:none;stop-opacity:0;"/>
</radialGradient>
<radialGradient id="paint9_radial_18_13311" cx="0" cy="0" r="1" gradientTransform="matrix(15.2375 8.03553 -18.3298 34.6837 13.8841 17.1529)" gradientUnits="userSpaceOnUse">
<stop offset="0.0198274" stop-color="#F7F7F7" style="stop-color:#F7F7F7;stop-color:color(display-p3 0.9703 0.9703 0.9703);stop-opacity:1;"/>
<stop offset="0.415385" stop-color="#808080" style="stop-color:#808080;stop-color:color(display-p3 0.5000 0.5000 0.5000);stop-opacity:1;"/>
</radialGradient>
<radialGradient id="paint10_radial_18_13311" cx="0" cy="0" r="1" gradientTransform="matrix(15.2375 8.03553 -18.3298 34.6837 13.8841 17.1529)" gradientUnits="userSpaceOnUse">
<stop offset="0.227498" stop-color="white" style="stop-color:white;stop-opacity:1;"/>
<stop offset="0.647812" stop-color="#B1B1B1" style="stop-color:#B1B1B1;stop-color:color(display-p3 0.6942 0.6942 0.6942);stop-opacity:1;"/>
<stop offset="1" stop-color="white" style="stop-color:white;stop-opacity:1;"/>
</radialGradient>
<clipPath id="clip0_18_13311">
<rect width="30.9225" height="24.1582" fill="white" style="fill:white;fill-opacity:1;"/>
</clipPath>
</defs>
</svg>
