<svg width="40" height="40" viewBox="0 0 40 40" fill="none" xmlns="http://www.w3.org/2000/svg">
<mask id="mask0_18_6578" style="mask-type:alpha" maskUnits="userSpaceOnUse" x="0" y="0" width="40" height="40">
<rect width="40" height="40" fill="#D9D9D9" style="fill:#D9D9D9;fill:color(display-p3 0.8510 0.8510 0.8510);fill-opacity:1;"/>
</mask>
<g mask="url(#mask0_18_6578)">
<path d="M23.3333 16.2221V13.9446C24.25 13.5557 25.1875 13.264 26.1458 13.0696C27.1041 12.8752 28.1111 12.7779 29.1666 12.7779C29.8888 12.7779 30.5972 12.8335 31.2916 12.9446C31.9861 13.0557 32.6666 13.1946 33.3333 13.3613V15.4721C32.6666 15.2221 31.993 15.0346 31.3125 14.9096C30.6319 14.7846 29.9166 14.7221 29.1666 14.7221C28.1111 14.7221 27.0972 14.854 26.125 15.1179C25.1527 15.3818 24.2222 15.7499 23.3333 16.2221ZM23.3333 25.3888V23.0834C24.25 22.7036 25.1875 22.4189 26.1458 22.2292C27.1041 22.0395 28.1111 21.9446 29.1666 21.9446C29.8888 21.9446 30.5972 22.0002 31.2916 22.1113C31.9861 22.2224 32.6666 22.3613 33.3333 22.5279V24.6388C32.6666 24.3888 31.993 24.2013 31.3125 24.0763C30.6319 23.9513 29.9166 23.8888 29.1666 23.8888C28.1111 23.8888 27.0972 24.0138 26.125 24.2638C25.1527 24.5138 24.2222 24.8888 23.3333 25.3888ZM23.3333 20.8054V18.5279C24.25 18.139 25.1875 17.8474 26.1458 17.6529C27.1041 17.4585 28.1111 17.3613 29.1666 17.3613C29.8888 17.3613 30.5972 17.4168 31.2916 17.5279C31.9861 17.639 32.6666 17.7779 33.3333 17.9446V20.0554C32.6666 19.8054 31.993 19.6179 31.3125 19.4929C30.6319 19.3679 29.9166 19.3054 29.1666 19.3054C28.1111 19.3054 27.0972 19.4374 26.125 19.7013C25.1527 19.9652 24.2222 20.3332 23.3333 20.8054ZM10.5 27.2221C11.9272 27.2221 13.3163 27.3866 14.6675 27.7154C16.0188 28.0441 17.3519 28.5371 18.6666 29.1946V11.8613C17.4536 11.0835 16.1469 10.4863 14.7466 10.0696C13.3463 9.65294 11.9308 9.4446 10.5 9.4446C9.46302 9.4446 8.44218 9.56488 7.43746 9.80544C6.43274 10.0463 5.4351 10.3611 4.44454 10.75V28.3054C5.3426 27.9352 6.31704 27.6621 7.36788 27.4863C8.41899 27.3102 9.46302 27.2221 10.5 27.2221ZM21.4445 29.1946C22.7779 28.5371 24.095 28.0441 25.3958 27.7154C26.6966 27.3866 28.0647 27.2221 29.5 27.2221C30.5369 27.2221 31.5901 27.3054 32.6595 27.4721C33.729 27.6388 34.6943 27.8703 35.5554 28.1667V10.75C34.6204 10.3056 33.6383 9.97683 32.6091 9.76377C31.58 9.55099 30.5436 9.4446 29.5 9.4446C28.0647 9.4446 26.6665 9.65294 25.3054 10.0696C23.9443 10.4863 22.6573 11.0835 21.4445 11.8613V29.1946ZM20.0554 33.3334C18.6665 32.2778 17.1573 31.4629 15.5279 30.8888C13.8982 30.3149 12.2222 30.0279 10.5 30.0279C9.4344 30.0279 8.38788 30.1621 7.36038 30.4304C6.33315 30.6991 5.32413 31.0463 4.33329 31.4721C3.71107 31.7777 3.11107 31.7453 2.53329 31.375C1.95551 31.0047 1.66663 30.4724 1.66663 29.7779V10.2221C1.66663 9.84266 1.7569 9.49085 1.93746 9.16669C2.11801 8.84252 2.38885 8.59252 2.74996 8.41669C3.95357 7.82419 5.20718 7.38433 6.51079 7.0971C7.8144 6.81016 9.14413 6.66669 10.5 6.66669C12.2036 6.66669 13.8633 6.89349 15.4791 7.3471C17.095 7.80099 18.6204 8.49085 20.0554 9.41669C21.472 8.49085 22.979 7.80099 24.5762 7.3471C26.1734 6.89349 27.8147 6.66669 29.5 6.66669C30.8494 6.66669 32.1729 6.81016 33.4704 7.0971C34.7679 7.38433 36.0184 7.82419 37.222 8.41669C37.5832 8.59252 37.8587 8.84252 38.0487 9.16669C38.2384 9.49085 38.3333 9.84266 38.3333 10.2221V29.7779C38.3333 30.5074 38.0347 31.0624 37.4375 31.4429C36.8402 31.8235 36.2407 31.8332 35.6387 31.4721C34.6665 31.0277 33.6668 30.6759 32.6395 30.4167C31.612 30.1575 30.5655 30.0279 29.5 30.0279C27.7777 30.0279 26.1204 30.3196 24.5279 30.9029C22.9351 31.4863 21.4443 32.2964 20.0554 33.3334Z" fill="white" style="fill:white;fill-opacity:1;"/>
</g>
</svg>
