<svg width="32" height="32" viewBox="0 0 32 32" fill="none" xmlns="http://www.w3.org/2000/svg">
<mask id="mask0_17_5183" style="mask-type:alpha" maskUnits="userSpaceOnUse" x="0" y="0" width="32" height="32">
<rect width="32" height="32" fill="#D9D9D9" style="fill:#D9D9D9;fill:color(display-p3 0.8510 0.8510 0.8510);fill-opacity:1;"/>
</mask>
<g mask="url(#mask0_17_5183)">
<path d="M19.3333 20C20.0667 20 20.6944 19.7389 21.2167 19.2167C21.7389 18.6945 22 18.0667 22 17.3334C22 16.6 21.7389 15.9722 21.2167 15.45C20.6944 14.9278 20.0667 14.6667 19.3333 14.6667C19 14.6667 18.6833 14.7278 18.3833 14.85C18.0833 14.9722 17.8111 15.1334 17.5667 15.3334L14 13.5334V13.1334L17.5667 11.3334C17.8111 11.5334 18.0833 11.6945 18.3833 11.8167C18.6833 11.9389 19 12 19.3333 12C20.0667 12 20.6944 11.7389 21.2167 11.2167C21.7389 10.6945 22 10.0667 22 9.33335C22 8.60002 21.7389 7.97224 21.2167 7.45002C20.6944 6.9278 20.0667 6.66669 19.3333 6.66669C18.6 6.66669 17.9722 6.9278 17.45 7.45002C16.9278 7.97224 16.6667 8.60002 16.6667 9.33335V9.53335L13.1 11.3334C12.8555 11.1334 12.5833 10.9722 12.2833 10.85C11.9833 10.7278 11.6667 10.6667 11.3333 10.6667C10.6 10.6667 9.97221 10.9278 9.44999 11.45C8.92777 11.9722 8.66666 12.6 8.66666 13.3334C8.66666 14.0667 8.92777 14.6945 9.44999 15.2167C9.97221 15.7389 10.6 16 11.3333 16C11.6667 16 11.9833 15.9389 12.2833 15.8167C12.5833 15.6945 12.8555 15.5334 13.1 15.3334L16.6667 17.1334V17.3334C16.6667 18.0667 16.9278 18.6945 17.45 19.2167C17.9722 19.7389 18.6 20 19.3333 20ZM7.99999 24L4.93332 27.0667C4.5111 27.4889 4.02777 27.5834 3.48332 27.35C2.93888 27.1167 2.66666 26.7 2.66666 26.1V5.33335C2.66666 4.60002 2.92777 3.97224 3.44999 3.45002C3.97221 2.9278 4.59999 2.66669 5.33332 2.66669H26.6667C27.4 2.66669 28.0278 2.9278 28.55 3.45002C29.0722 3.97224 29.3333 4.60002 29.3333 5.33335V21.3334C29.3333 22.0667 29.0722 22.6945 28.55 23.2167C28.0278 23.7389 27.4 24 26.6667 24H7.99999ZM6.86666 21.3334H26.6667V5.33335H5.33332V22.8334L6.86666 21.3334Z" fill="#F0264F" style="fill:#F0264F;fill:color(display-p3 0.9412 0.1490 0.3098);fill-opacity:1;"/>
</g>
</svg>
